<?xml version="1.0" encoding="UTF-8" standalone="no"?>
<!-- Generator: Adobe Illustrator 15.0.2, SVG Export Plug-In  -->
<svg xmlns:rdf="http://www.w3.org/1999/02/22-rdf-syntax-ns#" xmlns="http://www.w3.org/2000/svg" enable-background="new -1.7460938 -2.496582 105 53" xml:space="preserve" height="53px" width="105px" version="1.1" y="0px" x="0px" xmlns:cc="http://creativecommons.org/ns#" xmlns:dc="http://purl.org/dc/elements/1.1/" viewBox="-1.7460938 -2.496582 105 53"><metadata><rdf:RDF><cc:Work rdf:about=""><dc:format>image/svg+xml</dc:format><dc:type rdf:resource="http://purl.org/dc/dcmitype/StillImage"/><dc:title/></cc:Work></rdf:RDF></metadata>
<path d="M86.965,45.964c-0.5332-0.21777-0.50391,0.23633-0.31738,0.43066,0.089-0.16,0.507-0.231,0.317-0.431" fill="#0079C1"/>
<path d="M86.252,44.791c-0.23633-0.76953-0.75977-0.16895-0.82227,0.24316,0.281-0.114,0.759,0.183,0.822-0.243" fill="#0079C1"/>
<path d="M97.819,35.704c0.125-0.13965,0.42969-0.16699,0.26562-0.33203-0.76562-0.27441-0.60156,0.50391-0.30469,0.80176,0.033-0.131-0.064-0.361,0.039-0.47" fill="#0079C1"/>
<path d="M86.686,39.722c-0.84766-0.24414-0.73633,0.4043-0.42578,0.65918,0.114-0.244,0.737-0.402,0.426-0.659" fill="#0079C1"/>
<path d="M51.301,43.172c0.16504,0.079102,0.35742,0.12695,0.33691,0.24707,0.168-0.135,0.196-0.234-0.337-0.247" fill="#0079C1"/>
<path d="M51.638,43.419c-0.036133,0.020508-0.073242,0.050781-0.11523,0.075195,0.03418-0.012695,0.067383-0.015625,0.10254-0.038086,0.015-0.012,0.003-0.024,0.012-0.037" fill="#0079C1"/>
<path d="M45.059,42.461c0.15625-0.041016,0.18359-0.095703,0.19531-0.18262,0.0058594-0.056641,0.066406-0.13477,0.050781-0.19824-0.027344-0.13477,0.068359-0.19043-0.078125-0.19141-0.083984,0.13184-0.1123,0.041016-0.1748,0.098633-0.040039,0.035156-0.16895,0-0.2002,0.015625-0.06543,0.032227-0.029297,0.10352-0.083984,0.10352h-0.10352c0.068359,0.10449-0.09375,0.023438,0.022461,0.24707,0.02832,0.047852,0.19629-0.057617,0.2373,0.021484,0.045-0.007,0.101,0.096,0.136,0.085" fill="#0079C1"/>
<path d="M42.868,43.265c-0.21875,0.049805-0.29492,0.12598-0.28711,0.1875,0.0058594,0.045898,0.037109,0.09082,0.068359,0.1377-0.09375-0.13379,0.080078,0.22461,0.11328,0.10059-0.0019531,0.014648,0.10547-0.016602,0.080078,0.0087891,0.074219-0.11523,0.022461-0.0039063,0.10059-0.056641,0.042969-0.02832,0.2334-0.017578,0.27637-0.033203,0.082031-0.035156,0.011719-0.082031,0.085938-0.091797,0.058594-0.0078125,0.11133-0.010742,0.14941-0.014648-0.12793-0.068359,0.12695-0.02832-0.09668-0.18262-0.052734-0.035156-0.25684,0.070312-0.32812,0.017578-0.066,0.009-0.12-0.085-0.161-0.073" fill="#0079C1"/>
<path d="M44.243,42.677c0.044922,0.077148,0.097656,0.10254,0.15137,0.094727,0.02832-0.0068359,0.0625-0.016602,0.09082-0.032227,0.071289-0.032227,0-0.011719,0.071289-0.055664-0.081055-0.021484,0-0.036133-0.040039-0.063477-0.023438-0.012695-0.023438-0.088867-0.033203-0.10547-0.026367-0.026367-0.060547,0-0.067383-0.026367-0.012695-0.021484-0.016602-0.042969-0.016602-0.056641-0.042969,0.051758-0.020508-0.046875-0.12988,0.047852-0.024414,0.023438,0.0625,0.097656,0.024414,0.12793,0.007,0.023-0.062,0.046-0.05,0.068" fill="#0079C1"/>
<path d="M45.811,42.568c0.024414,0.039062,0.039062,0.056641,0.060547,0.079102,0.011719,0.0048828,0.020508,0.0087891,0.029297,0.014648,0.0068359,0.0009766,0.015625-0.014648,0.02832-0.010742,0.0068359,0.0009766,0.022461,0.020508,0.03418,0.020508,0-0.0039063,0.011719-0.0039063,0.011719-0.0039063s0.013672-0.023438,0.021484-0.024414c0.0097656-0.0019531,0.029297,0.018555,0.039062,0.010742l0.021484-0.010742c0.02832-0.018555,0.0625-0.043945,0.066406-0.05957-0.043945,0.0087891,0.023438-0.043945-0.038086-0.064453-0.026367-0.015625-0.021484-0.089844-0.03125-0.10254-0.02832-0.032227-0.0625,0-0.071289-0.03125-0.0078125-0.020508-0.0078125-0.041016-0.012695-0.056641-0.053711,0.050781-0.026367-0.044922-0.13184,0.046875-0.021484,0.023438,0.05957,0.097656,0.022461,0.12793,0.011,0.027-0.058,0.052-0.048,0.064" fill="#0079C1"/>
<path d="M76.574,44.876c0.15625-0.035156,0.18457-0.089844,0.19238-0.18066,0.010742-0.055664,0.064453-0.13379,0.052734-0.20215-0.024414-0.12695,0.072266-0.18457-0.083984-0.19141-0.074219,0.13672-0.10547,0.045898-0.17383,0.10742-0.03418,0.029297-0.16211-0.0068359-0.19922,0.010742-0.05957,0.035156-0.025391,0.10254-0.076172,0.10547-0.042969,0-0.078125-0.0029297-0.10547-0.0029297,0.066406,0.10742-0.095703,0.022461,0.023438,0.24902,0.026367,0.049805,0.19531-0.060547,0.22949,0.019531,0.047-0.004,0.107,0.1,0.141,0.085" fill="#0079C1"/>
<path d="M75.756,45.092c0.046875,0.080078,0.10156,0.10449,0.15234,0.094727,0.02832-0.0029297,0.0625-0.014648,0.095703-0.03125,0.064453-0.035156,0-0.013672,0.064453-0.052734-0.080078-0.020508,0-0.036133-0.039062-0.063477-0.023438-0.012695-0.023438-0.088867-0.030273-0.10449-0.02832-0.030273-0.0625,0-0.071289-0.030273-0.0078125-0.018555-0.013672-0.039062-0.015625-0.055664-0.046875,0.055664-0.023438-0.042969-0.12891,0.050781-0.027344,0.020508,0.05957,0.09082,0.025391,0.12695,0.009,0.02-0.058,0.045-0.052,0.064" fill="#0079C1"/>
<path d="M74.782,45.33c0.072266,0.097656,0.1748,0.12891,0.25977,0.12109,0.054688-0.0029297,0.11719-0.023438,0.17383-0.040039,0.125-0.041992,0-0.017578,0.12793-0.067383-0.15137-0.029297,0-0.045898-0.071289-0.077148-0.041016-0.017578-0.041016-0.10938-0.0625-0.12598-0.050781-0.039062-0.11328,0-0.125-0.039062-0.011719-0.023438-0.019531-0.044922-0.027344-0.067383-0.080078,0.0625-0.041016-0.057617-0.22559,0.05957-0.047852,0.026367,0.10059,0.11816,0.03418,0.15527,0.019,0.031-0.106,0.06-0.084,0.08" fill="#0079C1"/>
<path d="M77.326,44.988c0.018555,0.036133,0.041016,0.05957,0.05957,0.075195,0.0078125,0.0078125,0.018555,0.0097656,0.025391,0.018555,0.013672,0.0009766,0.024414-0.015625,0.024414-0.015625,0.020508,0.0048828,0.030273,0.022461,0.041992,0.022461,0.0019531-0.0019531,0.0078125-0.0019531,0.019531-0.0019531,0.0078125-0.0039063,0.0078125-0.023438,0.017578-0.030273,0.0058594,0,0.027344,0.021484,0.037109,0.014648-0.0097656,0.0068359,0,0,0.019531-0.014648,0.026-0.013,0.063-0.037,0.067-0.056-0.042969,0.0097656,0.021484-0.045898-0.041016-0.0625-0.022461-0.015625-0.017578-0.088867-0.03125-0.10449-0.025391-0.027344-0.058594,0-0.064453-0.027344-0.013672-0.019531-0.017578-0.041992-0.017578-0.056641-0.049805,0.051758-0.027344-0.048828-0.13281,0.044922-0.021484,0.023438,0.058594,0.09668,0.023438,0.12891,0.01,0.023-0.056,0.051-0.049,0.064" fill="#0079C1"/>
<path d="M98.334,31.371l0.03125-0.20508-0.038086-0.089844-0.079102,0.078125-0.12012,0.060547c0.018555-0.085938-0.16602-0.25781-0.24316-0.2373-0.038086,0.013672-0.087891,0.030273-0.12891,0.044922-0.054688,0.022461,0.1875,0.14355-0.027344,0.26172-0.097656,0.063477-0.12891,0.13672,0.0087891,0.19629,0.032227,0.012695,0.15918-0.1123,0.20996-0.098633l0.10547,0.064453,0.056641-0.030273,0.070312-0.023438,0.19336,0.087891-0.039-0.11z" fill="#0079C1"/>
<path d="M98.765,31.816c-0.03418,0-0.067383,0.0009766-0.098633,0.0087891-0.074219,0.012695-0.10352-0.083984-0.17578-0.043945-0.023438,0.015625-0.09668,0.16113-0.125,0.17676-0.023438,0.018555-0.16504-0.064453-0.18555-0.046875-0.046875,0.03125,0.020508,0.1543-0.023438,0.18359-0.11719,0.078125-0.03125,0.20801-0.14062,0.23438,0.26172,0,0.33789-0.039062,0.62109-0.0019531l-0.074219-0.1543c0.25977-0.23535,0.32715-0.2793,0.51758-0.18555-0.106-0.118-0.211-0.17-0.315-0.171" fill="#0079C1"/>
<path d="M92.235,43.886l0.27832,0.089844c0.032227,0.081055,0.13184,0.049805,0.23535,0.010742,0.064453-0.026367,0.12695-0.061523,0.18262-0.088867,0.073242-0.03418,0.14062-0.077148,0.1875-0.1123,0.11816-0.089844,0.12988-0.16895-0.13184-0.17285-0.060547-0.0019531-0.18848,0.15039-0.2832,0.15723l-0.196-0.02-0.081055,0.039062-0.10059,0.049805-0.27441,0.012695,0.184,0.034z" fill="#0079C1"/>
<path d="M91.577,39.025l0.14258-0.25195c-0.03125-0.080078,0.066406-0.125,0.17676-0.16211,0.057617-0.023438,0.12402-0.041992,0.18945-0.058594,0.082031-0.023438,0.15332-0.035156,0.21387-0.043945,0.15137-0.010742,0.20801,0.043945,0.017578,0.21875-0.043945,0.041992-0.24023,0.015625-0.31836,0.072266l-0.13184,0.14648-0.084961,0.021484-0.10742,0.029297-0.20996,0.17383,0.111-0.144z" fill="#0079C1"/>
<path d="M88.078,45.552c0.053711-0.011719,0.30273-0.076172,0.35352-0.092773,0.1084-0.039062,0.20996,0.040039,0.30566-0.023438,0.03125-0.018555,0.064453-0.1748,0.097656-0.2002,0.03125-0.018555,0.30469,0.0029297,0.33398-0.018555,0.054688-0.041016-0.13867-0.12793-0.083984-0.16895,0.13867-0.10449-0.076172-0.19629,0.091797-0.25684-0.432,0.085-0.531,0.152-1.007,0.209l0.21387,0.1123c-0.28125,0.29297-0.59375,0.46973-0.94434,0.4502,0.239,0.074,0.46,0.026,0.637-0.01" fill="#0079C1"/>
<path d="M98.877,32.496c-0.25781,0.071289,0,0.4668,0.17969,0.54297-0.068-0.189-0.008-0.463-0.18-0.543" fill="#0079C1"/>
<path d="M96.896,41.76c0.083008-0.33008,0.41309-0.53418,0.62402-0.66992-0.24707,0.26562,0.16895,0.30273,0.16895,0.30273,0.63867-0.33984-0.086914-0.20215-0.029297-0.5,0.3877,0.058594,0.90332-0.35156,0.99902-0.42773,0.19727,0.082031,0.029297-0.23242,0.34668-0.54688l0.083008,0.075195c0.30078-1.1562,1.0801-2.1191,1.1025-3.2812-0.043945,0.063477-0.12207,0.013672-0.20801,0.011719,0.25-1.0332,0.21289-2.6523-0.92383-3.2803,0.20117,0.54492-0.49121,1.2803,0.10938,1.9043-0.32227,0.12109,0.0048828,0.51465-0.42383,0.46582-0.39258,0.5957,0.1582,1.1748-0.24512,1.8369-0.11426,0.045898-0.25684-0.1123-0.43848-0.19434,0.041016-0.19141,0.091797-0.37598,0.11133-0.56836-0.09375,0.073242-0.20312,0.13281-0.30566,0.19336-0.082031-0.2041,0.18945-0.43262-0.125-0.63477,0.20215,0.60938-0.30957,0.47754-0.19336,1.1016,0.20801-0.080078,0.099609,0.17969,0.25879,0.020508,0.16504,0,0.33398-0.083008,0.49805,0.039062,0.037109,0.46582-0.16699,0.31348-0.38477,0.58887-0.026367,0.03418-0.12305,0.2998-0.15137,0.33691-0.051758,0.051758-0.18457-0.075195-0.2334-0.017578-0.043945,0.041992-0.012695,0.27344-0.058594,0.32129-0.11914,0.12012-0.23828,0.24609-0.35156,0.38574-0.042969,0.057617-0.082031,0.12305-0.13086,0.19238-0.044922,0.071289-0.12988,0.25977-0.20312,0.32812-0.067383,0.058594-0.15625,0.11133-0.26758,0.15332,0,0-0.9707-0.63477-0.37305,0.02832,0,0-0.29492,0.023438-0.36328,0-0.025391-0.010742-0.05957-0.022461-0.085938-0.026367,0,0-0.072266-0.042969-0.17969-0.075195-0.10156-0.037109-0.22852-0.05957-0.33203-0.021484-0.12012-0.023438-0.24023,0.11816-0.30273,0.053711,0.0625,0.13281,0.20312,0.11133,0.082031,0.19434-0.32129-0.11133-0.21973-0.30664-0.25-0.39844-0.10254,0.23145-0.16504,0.06543-0.18066,0.3125-0.12207,0-0.069336,0.1709-0.12207,0.056641-0.020508-0.038086-0.12305-0.053711-0.13477-0.10059-0.026367-0.068359-0.17383,0.11523-0.20508,0.043945-0.044922-0.1084-0.09375-0.21094-0.17188-0.30176-0.076172-0.41797,0.35352-0.7207,0.21289-0.69727l-0.24023,0.18555c-0.035156-0.10645-0.050781-0.21387-0.13184-0.27832-0.041992-0.035156,0.12891-0.15625,0.10645-0.20312-0.0058594-0.020508-0.0097656-0.048828-0.0097656-0.078125,0-0.027344,0-0.061523,0.0097656-0.097656-0.06543-0.0009766-0.045898,0.029297-0.11133,0.042969-0.021484,0.011719,0.014648,0.10645-0.010742,0.11719-0.03125,0.0068359-0.068359,0.021484-0.099609,0.042969-0.0087891,0.0039063-0.016602,0.024414-0.022461,0.046875,0,0.023438,0.0058594,0.056641,0.013672,0.085938,0.0019531,0.057617-0.13086-0.0029297-0.15234,0.016602-0.011719,0.0097656-0.35742,0.13281-0.40625,0.12207-0.016602-0.0009766-0.044922-0.0078125-0.069336-0.012695-0.06543-0.013672,0.067383,0.18262,0.052734,0.19531-0.041992,0.037109-0.02832,0.056641-0.05957,0.087891-0.019531,0.020508-0.0048828-0.025391-0.024414-0.0068359-0.011719,0.015625-0.011719-0.071289-0.026367-0.061523-0.051758,0.074219,0-0.14844-0.067383-0.069336,0.082031,0.049805-0.084961-0.030273-0.036133,0.10645-0.128,0.206-0.177,0.291-0.283,0.158-0.44922,0.3877,0.31445,0.20801,0.035156,0.41797-0.42578-0.17871-0.28516,0.09375-0.72656-0.24805l0.17383,0.35938c-0.30176-0.2168-0.09375,0.34668-0.37402,0.21094-0.042969-0.073242,0.16113,0.48145-0.88184,0.037109l-0.039062-0.46484c-0.12305,0.068359,0-0.24316,0.51953-0.34961-0.48047-0.1123-0.71582,0.24512-0.9082,0.59473,0,0-0.10547,0.38281-0.035156,0.62695l-0.20898,0.31738-0.7334-0.015625c-0.14746,0.0078125-0.27246-0.49512-0.24121-0.3584-0.26172,0.19141-0.0087891-0.14453-0.49414,0.58496,0.10156,0.4502-0.41992,0.28125-0.65332,0.41406-1.3027,0.092773-3.4307,0.86523-4.5947,1.4062-0.16992,0.021484-0.44629,0.51855-0.79297,0.67578,0.32812,0.17578,0.39355-0.055664,0.69727-0.041992,0.2207,0.11914,0.19824,0.21777,0.42773,0.49707,0.29492-0.33691,0.24609,0.19629,0.44922-0.22656,0,0,1.3848-0.069336,1.5381,0.092773,0.15332,0.15918,0.36816,0.41699,0.36816,0.41699,0.12305,0.23535,0.42578-0.051758,0.5918,0.11621,0.063477,0.0087891,0.19434-0.18164,0.48633-0.34668,0.16309-0.095703,0.10742-0.091797,0.3291-0.15332l0.39648,0.1543,0.079102-0.31055,0.41406-0.027344c-0.03418-0.90332,0.71289,0.11621,0.93164-0.45117,0.11133-0.11621,0.46875,0.32031,0.71582,0.16895l-0.151-0.369c0.34375,0.31055,0.76172,0.054688,1.2227,0.6123,0.092773-0.36328,0.48047,0.35547,0.37402,0.056641,0.24316-0.53223,0.5498,0.10352,0.57324-0.22461,0.48047,0.13477,0.11621-0.56934,0.66602-0.5127,0.12891,0.18555,0.44922-0.085938,0.44922-0.085938,0.16016-0.50781,0.3457-0.09082,0.78711-0.37891,0.6543,0.021484,1.4805-0.24414,2.291-0.25781l-0.053711-0.13184c0.4375,0.19141,0.57129-0.27344,0.97754-0.30957l-0.259-0.1z" fill="#0079C1"/>
<path d="M89.267,40.308c-0.33887-0.11523-0.036133-0.19238-0.1377-0.31934-0.0039063-0.0058594-0.19043-0.0087891-0.26172-0.014648,0.024414-0.16211,0.089844-0.063477-0.0087891-0.18262,0.023-0.004,0.242-0.166,0.242-0.166,0.21094,0.25781-0.015625,0.19922,0.060547,0.28906,0.087891,0.10449,0.18555,0.013672,0.25684,0.013672-0.015625,0.1709-0.081055,0.070312,0.015625,0.18652-0.066,0.104-0.019,0.25-0.167,0.193" fill="#0079C1"/>
<path d="M62.331,45.182c0-0.052734-0.0048828-0.099609,0.0039063-0.13184,0.037109,0.037109,0.071289,0.080078,0.11328,0.13184h-0.11743z" fill="#0079C1"/>
<path d="M71.53,45.642c-0.0097656,0-0.021484-0.0009766-0.02832,0-0.023,0.004,0.006,0.004,0.028,0" fill="#0079C1"/>
<path d="M71.53,45.642c0.0058594,0.0039063,0.0097656,0.0048828,0.024414,0.0048828,0.01-0.005,0-0.005-0.024-0.005" fill="#0079C1"/>
<path d="M84.221,46.109l-2.3281,0.64941c-1.1338-0.32812-1.4395-0.47461-2.4043-0.041016-0.49805-0.43945-1.4082-0.0029297-1.5781-0.55078-2.1074-0.45117-3.041,0.39258-5.0352,0.3623-0.28711-0.098633-0.13086,0.074219-0.20898-0.17285,0.25781-0.038086,0.3457-0.077148,0.42969-0.11328,0.046875-0.017578,0.21875,0.11426,0.29395,0.097656,0.064453-0.019531,0.026367-0.19141,0.15723-0.21094l-0.094727-0.082031-0.053711-0.046875-0.091797-0.083984c0.43359-0.22266,1.2617,0.03125,1.4062-0.41309-0.33203,0.10156-0.43457,0.09082-0.74316,0.10156-0.068359,0.0048828-0.14062,0.0048828-0.20996,0.0048828-0.060547-0.0019531-0.125-0.0048828-0.18555-0.0087891-0.097656,0-0.2002-0.0068359-0.30273-0.013672-0.056641,0-0.20117,0.10449-0.25684,0.10156-0.12012-0.0078125-0.14551-0.13086-0.26465-0.1377-0.054688-0.0029297-0.30273,0.20898-0.3623,0.20508-0.11426-0.0029297-0.036133-0.2168-0.13965-0.2168-0.060547,0.0039063-0.11035,0.0058594-0.16406,0.011719-0.03418,0.0019531-0.06543,0.0068359-0.089844,0.0068359,0.10254-0.012695,0.089844,0.083008-0.11816,0.015625-0.026367,0.0009766-0.069336,0.13379-0.09668,0.13477-0.033203,0.0087891-0.15625-0.045898-0.22559-0.0625l-0.0068359,0.0019531c-0.11816,0.035156-0.23828,0.083008-0.35547,0.14258-0.054688,0.022461-0.0078125,0.16797-0.063477,0.19922,0.2666,0.043945,0.25879-0.14551,0.32617-0.091797,0.020508,0.018555,0.024414,0.16504,0.051758,0.17676,0.023438,0.015625,0.054688,0.030273,0.091797,0.043945,0.025391,0.0068359,0.054688,0.016602,0.09375,0.023438,0.041016,0.0068359,0.095703,0.014648,0.1582,0.021484,0.033203,0.0029297,0.066406,0.0078125,0.10938,0.013672,0.30371,0.16309,0.7627-0.14355,0.72266,0.11133-1.9355,0.70703-3.2061-0.036133-5.1836,0.36914l-0.4082,0.12598c-0.17383,0-0.35352,0.0058594-0.54688,0.015625-0.43555,0.025391-0.73047,0-0.92285-0.25098,0.022461-0.14746-0.0625-0.24902,0.17383-0.32324-0.21094-0.15527-0.30957,0.42969-0.52246,0.55664-0.087891,0.048828-0.0019531-0.16309-0.25195-0.20703,0,0-0.051758-0.16895,0.21289-0.42578,0.27051-0.25684-0.25977-0.040039-0.25977-0.040039-0.091797,0.1582-0.10352,0.033203-0.21973,0.057617-0.063477,0.017578-0.21777,0.22168-0.28418,0.21191-0.12793-0.015625-0.26562-0.070312-0.40625-0.11621-0.03125-0.014648-0.068359-0.019531-0.09668-0.03125-0.14062-0.046875-0.29004-0.078125-0.43652-0.064453-0.09375,0.015625-0.18555,0.037109-0.27637,0.091797-0.19531-0.30762,0.33496-0.30273,0.40527-0.25098-0.37109-0.17773,0.49023-0.40625-0.52734-0.068359l0.38281-0.34961c-0.14062,0.040039-0.3623-0.11719-0.5127-0.21094,0.25195,0.15332-0.092773,0.32129-0.30566,0.10449-0.035156-0.032227-0.067383-0.066406-0.091797-0.10645-0.058594-0.067383-0.11035-0.1377-0.15625-0.19531h-0.11719v0.092773c0.0039063,0.088867-0.24219,0.040039-0.06543,0.24219-0.055664,0.071289-0.1582,0.10059-0.35547,0.071289,0.12988-0.12402-0.088867-0.40625-0.3125-0.19141-0.27832,0.10938-0.11816,0.36426-0.49902,0.33984-0.044922-0.20605,0.26953-0.12207,0.19922-0.39258-0.33984,0.15137-0.21289,0.014648-0.37988-0.083984l-0.41113,0.14453c-0.0048828,0.099609-0.045898,0.1084-0.25488,0.22559-0.29785-0.089844-0.30566-0.1748-0.21582-0.28125,0.092773-0.10547,0.2041-0.095703,0.21582-0.16699,0.0048828-0.038086-0.011719-0.084961-0.053711-0.17285,0.49805-0.18262,0.81641-0.2334,0.64453-0.39941l-0.44922-0.18262c0.09082-0.23242-0.71777-0.49609-0.10059-0.65918-0.51855-0.1582-1.1104-0.22363-1.707-0.22949-0.16797-0.0019531-0.33887,0.27441-0.50293,0.27637-0.24707,0.0058594-0.48047-0.24707-0.72266-0.23047-0.76562-0.19727-0.4502,0.032227-0.66406,0.052734,0.14844,0.09375,0.3418,0.16211,0.29492,0.30762-0.57324,0.092773-0.48828-0.20312-0.58594-0.38184-0.0625,0.018555-0.10742,0.039062-0.15332,0.067383-0.036133,0.023438-0.067383,0.043945-0.09375,0.069336-0.047852,0.041992-0.125,0.010742-0.15625,0.063477-0.02832,0.041992-0.077148,0.051758-0.125,0.19824-0.047852,0.14258,0.047852,0.10059,0.024414,0.14062-0.015625,0.029297-0.029297,0.055664-0.042969,0.077148-0.017578,0.023438-0.16797-0.014648-0.18555,0.010742-0.029297,0.046875,0.074219,0.1543,0.03125,0.19531-0.27148-0.13574-0.35449-0.32324-0.52344-0.43066-0.070312-0.044922-0.28906,0.0058594-0.3125-0.057617-0.14453-0.34863-0.31152-0.083984-0.50977-0.02832-0.36328,0.11816-0.30371,0.1709-0.30371,0.1709-0.50488-0.36035-0.61426,0.25586-1.1631-0.0087891-0.027344-0.095703,0.49023-0.084961,0.37305-0.27344-0.18555,0.040039-0.21973-0.040039-0.30664-0.098633-0.019531-0.010742-0.11328,0.015625-0.125,0.0048828-0.014648-0.0097656-0.033203-0.020508-0.042969-0.033203-0.019531-0.013672-0.046875-0.10938-0.06543-0.12305-0.094727-0.066406-0.19629-0.035156-0.40234,0.026367l0.11621-0.13672,0.037109-0.03418h0.16113l-0.031-0.114,0.10254-0.078125,0.018555-0.087891c-0.12402,0.0039063-0.13965-0.0087891-0.26855-0.0048828-0.058594,0.0009766-0.19043-0.13281-0.29297,0.030273-0.046875-0.0048828-0.095703-0.0097656-0.13281-0.025391-0.074219-0.021484-0.12109-0.069336-0.10352-0.15332,0.0097656-0.030273,0.021484-0.0625,0.041016-0.10449-0.0625,0.043945-0.26953-0.046875-0.19727,0.10645-0.03125,0.015625-0.0625,0.026367-0.095703,0.038086-0.20801,0.077148-0.44238,0.12305-0.68555,0.15039-0.02832,0.0048828-0.046875,0.0078125-0.074219,0.010742-0.085938,0.0097656-0.17773,0.016602-0.26758,0.024414-0.013672,0.0009766-0.029297,0.0078125-0.044922,0.0078125-0.16309,0.0097656-0.33203,0.025391-0.49707,0.039062-0.053711,0.0068359-0.11426,0.014648-0.16504,0.016602-0.25293,0.03125-0.49316,0.076172-0.71875,0.14551l-0.017578-0.20117c-0.32031-0.1543-0.45605,0.061523-0.80664,0.078125-0.024414,0.0029297-0.048828,0.0029297-0.070312,0.0068359-0.043945,0-0.083984,0.0009766-0.11914,0.0019531-0.049805,0.0019531-0.10156,0.0039063-0.15234,0.010742-0.033203,0-0.05957,0.0048828-0.091797,0.0048828-0.046875,0.0009766-0.097656,0.013672-0.13867,0.017578-0.05957,0.011719-0.11426,0.023438-0.16309,0.036133-0.077148,0.022461-0.1416,0.048828-0.2041,0.082031-0.064453,0.041992-0.12305,0.094727-0.16797,0.16016l-0.074219-0.14355-0.15625,0.098633-0.13477,0.083984-0.1084,0.071289s-0.040039-0.13965-0.28125-0.025391c-0.25293,0.11523-0.16699,0.29785-0.16699,0.29785-0.129-0.007-0.207-0.072-0.251-0.15-0.085938-0.1543,0.29395-0.1543,0.070312-0.36328-0.25684,0.22949-0.14453-0.071289-0.52148-0.037109-0.075,0.009-0.037,0.212-0.106,0.219-0.091797,0.013672-0.17773,0.026367-0.26465,0.037109-0.09668,0.010742-0.14355-0.42285-0.25293-0.11523-0.15234,0.011719-0.33301,0.020508-0.47559,0.020508-0.09375,0-0.18848,0.14062-0.27832,0.13184-0.11816-0.0078125-0.23242-0.023438-0.34668-0.047852-0.012695,0.047852-0.21484,0.087891-0.24316,0.13184-0.025391,0.041016,0.13379,0.088867,0.10254,0.12695-0.046875,0.043945-0.09668,0.084961-0.14551,0.12207-0.039062,0.025391-0.080078,0.046875-0.12109,0.071289-0.079102,0.044922-0.16992,0.084961-0.26074,0.12012-0.078125,0.027344-0.15625,0.055664-0.23438,0.080078-0.09082,0.030273-0.18457,0.058594-0.27637,0.083008-0.17676,0.041992-0.35059,0.083008-0.51562,0.12109-0.09375,0.0039063-0.072266-0.10645-0.1543-0.14355-0.091797-0.039062-1.7578-0.12207-1.8525-0.16113-1.5088-0.42676-1.6045-0.09082-2.7061-0.32617-0.095703-0.020508-1.1484-0.0019531-1.2402-0.023438-0.24219-0.049805-0.32422,0.17285-0.57617,0.11621-0.099609-0.020508-0.31445-0.064453-0.55957,0-0.21191,0.0625-0.60547-0.041016-0.80762,0.010742-0.1748,0.045898-0.33105,0.077148-0.4043,0.0625-0.33008-0.074219-0.27637,0.10547-0.56055,0.067383-0.09082-0.011719-0.25293-0.17676-0.4209-0.20508-0.24023-0.057617-0.28809,0.1377-0.50684,0.11035-0.067383-0.0039063-0.3125-0.23242-0.37402-0.23828-0.0625-0.0058594-0.125-0.0097656-0.1875-0.016602-0.16699-0.016602-0.34277-0.64258-0.53906-0.67285-0.02832-0.0068359-0.069336-0.040039-0.11914-0.087891-0.10645-0.099609-0.44336,0.0058594-0.50879-0.0058594-0.046875-0.0068359-0.26172-0.21387-0.35059-0.22656-0.12988-0.014648-0.27051-0.032227-0.3418-0.041016-0.7627-0.10547-0.86426-0.36914-1.7529-0.40137-0.65137-0.10547-1.8086-1.373-2.7266-1.2637,1.4697,0.14062,1.083,1.7334,2.0439,1.8906,0.64648,0.25977,0.60059,0.71484,1.0117,1.1416l-0.053711-0.4707c1.1621-0.1582,0.51562,0.34668,1.5215,0.081055l-0.4541,0.66016c0.20703-0.12207,0.28516-0.097656,0.69629-0.053711-0.11719,0.71582,0.32812,0.28418,0.41016,0.41699l0.52734-0.39355c0.074219,0.11719,0.39941,0.55566,0.37305,0.66797l0.48633-0.071289c0.008,0.08,0.187,0.167,0.422,0.262,0.70312,0.27734,1.9619,0.625,1.0762,1.0225,0.23438-0.050781,0.53516-0.22852,0.86328-0.079102l-0.25195,0.42383c0.58984,0.041992,1.2217,0.12207,1.1904,0.39062-0.35059,0.021484-0.57715,0.1748-0.80859,0.33203,1.7822,0.32129,0.77246-0.97168,2.7188-0.42871l-0.2373,0.25391,0.7041-0.12305,0.22949,0.49512c1.4414-0.67871,3.083-0.76758,4.5859-0.81348,0.19238,0.029297,0.32227,0.1543,0.44727,0.3125l0.78711,0.37305c0.30273,0.11035,0.66992,0.28711,1.0986,0.21094l-0.075195-0.4082c0.52832,0.33105,2.2695-0.80664,2.998-0.083984l0.18555-0.039062c-0.018555-0.021484-0.03125-0.055664-0.029297-0.10254,0.48438-0.20703,0.74707-0.17578,0.95703-0.054688,0.22461,0.13477,0.37793,0.37109,0.65234,0.50098,0.61816-0.19727-0.47266-0.15918-0.13672-0.46191,0.94434,0.31641,0.7793,0.49414,1.9561,0.80664,0.10645,0.2334,1.9404,0.54102,3.1807,0.56348,1.4014,0.40625,3.7734-0.12695,5.457,0.43066l0.048828-0.14453c0.66992,0.45898,2.0293-0.48633,2.8643-0.2334l-0.93066,0.41113c0.5791-0.19727,1.4199-0.67969,1.9512-0.74219l0.41309,0.2041c0.58984-0.09375,0.13477-0.09375,0.57129-0.28125,0.16309,0.10547,0.41113,0.15527,0.6709,0.17383l0.7207,0.091797s0-0.27832,0.22168-0.0039063c0.2207,0.27148,0.4209-0.012695,0.4209-0.012695s0.27539-0.079102,0.62891,0.047852c0.35742,0.13477,0.52637,0.29883,0.52637,0.29883,0.33105-0.69727,1.792,0.09375,1.7715,0.094727l1.0801-0.36621c0.16211,0.073242,0.39453,0.24902,0.56348,0.13477l-0.09082-0.20898c0.085938-0.014648,0.17188-0.044922,0.25781-0.098633l0.31445-0.082031c0.47363,0.59473,0.19531-0.0097656,0.60156,0.45703,0.080078-0.36133,0.49609,0.34277,0.37695,0.052734,0.22461-0.54688,0.55273,0.080078,0.56445-0.24609,0.48047,0.11426,0.09375-0.4375,0.64355-0.39844,0.1377,0.18652,0.4502-0.10059,0.4502-0.10059,0.024414-0.10156,0.056641-0.16797,0.09668-0.20801,0.58984,0.072266,1.2646,0.4209,2.1943,0.35059-0.16797-0.045898-0.11914-0.15234-0.16797-0.25977,2.6914,0.072266,4.3828,0.021484,6.7158-0.68457-0.569-0.087,1.417-0.622,0.655-0.841m-12.99,2.013c0.010742,0.017578,0.029297,0.030273,0.054688,0.041016l-0.16211,0.026367,0.107-0.067z" fill="#0079C1"/>
<path d="M78.506,39.892c-0.71484,0.036133-0.45996,0.51562-0.1377,0.63965,0.022-0.224,0.452-0.523,0.138-0.64" fill="#22BCB9"/>
<path d="M28.42,35.992c0.010742,0.011719,0.019531,0.025391,0.029297,0.03418h0.27344c0-0.0087891-0.010742-0.022461-0.010742-0.03418h-0.29059z" fill="#22BCB9"/>
<path d="M75.565,40.693c0.17188-0.092773,0.40625-0.041992,0.55957-0.14551,0.10547-0.27344-2.5498,0.026367-1.5049,0.067383-0.072266-0.0019531-0.14062-0.0039063-0.21289-0.0097656-0.085938-0.0068359-0.17969-0.014648-0.27148-0.016602-0.09375-0.0058594-0.18555-0.0097656-0.28125-0.014648-0.18555-0.011719-0.375-0.026367-0.5625-0.037109-0.30469-0.015625-0.60059-0.032227-0.90332-0.038086-1.1055-0.030273-2.1865,0.048828-3.0254,0.53711-0.6748-0.45801-1.7471,0.16016-2.0127-0.48828-2.6094-0.38672-3.7617,0.69531-6.3535,0.4082-0.34766-0.1582-0.28613,0.11914-0.35449-0.19141l-0.1709-0.21289c-2.5879,0.54297-4.2363-0.21289-6.7607-0.51953-0.64258-0.068359-1.0654-0.18945-1.2793-0.5957,0.070312-0.21387-0.02832-0.37695,0.33887-0.43164-0.26855-0.2666-0.5625,0.5459-0.90625,0.67969-0.12695,0.048828,0.039062-0.24316-0.30664-0.36523,0,0-0.03418-0.25977,0.41797-0.56055,0.45605-0.30078-0.36328-0.12793-0.36328-0.12793-0.17676,0.21191-0.16113,0.026367-0.33301,0.038086-0.09375,0.0039063-0.36816,0.26074-0.46484,0.22754-0.18262-0.057617-0.36816-0.16895-0.56055-0.27637-0.045898-0.019531-0.088867-0.045898-0.12695-0.066406-0.19824-0.095703-0.40137-0.18457-0.62012-0.19727-0.13379-0.0097656-0.27148,0.0048828-0.4209,0.056641-0.20215-0.49512,0.56348-0.35352,0.65723-0.25977-0.49512-0.3457,0.7998-0.4668-0.74805-0.23242l0.63965-0.40625c-0.21875,0.023438-0.49023-0.26074-0.68848-0.43164,0.32617,0.28223-0.21875,0.44141-0.4707,0.068359-0.037109-0.053711-0.073242-0.11523-0.10742-0.17285-0.11133-0.2002-0.20996-0.41406-0.30371-0.54199-0.03125,0.067383-0.041992,0.19336-0.057617,0.31836-0.020508,0.12793-0.36133,0-0.1543,0.34277-0.10059,0.077148-0.2666,0.099609-0.53125,0.0039063,0.21875-0.15039-0.03125-0.61035-0.41113-0.35742-0.4248,0.092773-0.012695,0.23828-0.55957,0.10449-0.015625-0.31445,0.42188-0.10449,0.39258-0.51367-0.53027,0.12793-0.31445-0.03418-0.53027-0.22168l-0.62891,0.10742c-0.03418,0.1416-0.091797,0.14746-0.42773,0.26172-0.40625-0.20605-0.38965-0.33105-0.23926-0.45605,0.0029297-0.0039063,0.0078125-0.0087891,0.010742-0.03418h0.033203c0.25195-0.17871,0.75488-0.36133,0.62305-0.77637,0.7666-0.13379,1.2393-0.12402,1.0381-0.41504l-0.61328-0.37891c0.19629-0.30957-0.90625-0.8877,0.027344-0.97266-0.70508-0.36816-1.5508-0.60059-2.4004-0.75781-0.24609-0.046875-0.56055,0.30273-0.80176,0.26758-0.35449-0.052734-0.64062-0.48438-0.9834-0.51758-1.0527-0.48633-0.66406-0.066406-0.97363-0.09668,0.1875,0.17578,0.45215,0.32617,0.34961,0.52246-0.85938-0.018555-0.65234-0.41406-0.75293-0.70117-0.089844,0.013672-0.16797,0.029297-0.24316,0.061523-0.055664,0.018555-0.10156,0.046875-0.15137,0.075195-0.080078,0.051758-0.17969-0.015625-0.23633,0.049805-0.051758,0.057617-0.13086,0.05957-0.23438,0.25781-0.10645,0.19727,0.035156,0.15723-0.0019531,0.21191-0.029297,0.03125-0.052734,0.063477-0.078125,0.099609-0.03418,0.032227-0.2373-0.06543-0.27441-0.032227-0.049805,0.057617,0.068359,0.2373-0.0019531,0.28711-0.35645-0.26465-0.42969-0.55664-0.64746-0.75488-0.09082-0.080078-0.41602-0.069336-0.44043-0.16406-0.11621-0.53125-0.4248-0.19434-0.72559-0.16016-0.55957,0.068359-0.48047,0.16602-0.48047,0.16602-0.63477-0.64551-0.95117,0.21191-1.6777-0.31543-0.015625-0.1377,0.72852,0.0068359,0.60352-0.29883-0.27832,0.010742-0.30469-0.10938-0.42383-0.21777-0.015625-0.020508-0.1582-0.0029297-0.17383-0.023438-0.021484-0.016602-0.037109-0.040039-0.052734-0.056641-0.025391-0.029297-0.041016-0.17188-0.068359-0.19727-0.12012-0.12012-0.27246-0.09668-0.58398-0.06543l0.20508-0.1582,0.0625-0.046875,0.23145,0.043945-0.021-0.177,0.15625-0.083008,0.05957-0.12012c-0.17773-0.030273-0.2002-0.047852-0.39355-0.075195-0.079102-0.0078125-0.24316-0.24609-0.42578-0.037109-0.073242-0.015625-0.1377-0.039062-0.18652-0.063477-0.10742-0.054688-0.1582-0.13184-0.10742-0.25293,0.015625-0.040039,0.043945-0.084961,0.084961-0.1377-0.10449,0.045898-0.37891-0.13672-0.31152,0.10645-0.050781,0.010742-0.098633,0.021484-0.15234,0.03125-0.31543,0.053711-0.66797,0.063477-1.0342,0.041992-0.029297,0-0.069336-0.0039063-0.10059-0.0048828-0.125-0.0058594-0.26074-0.017578-0.39258-0.030273l-0.070312-0.0058594c-0.24023-0.021484-0.4834-0.044922-0.72852-0.063477-0.078125-0.0087891-0.16113-0.014648-0.24219-0.014648-0.375-0.024414-0.73242-0.024414-1.0713,0.030273l0.024414-0.30566c-0.42773-0.31152-0.67773-0.026367-1.1875-0.089844-0.033203-0.0058594-0.072266-0.0087891-0.10352-0.013672-0.0625-0.0048828-0.11914-0.013672-0.17969-0.022461-0.067383-0.0097656-0.13672-0.015625-0.20996-0.022461-0.046875-0.0029297-0.09082-0.0097656-0.13574-0.014648-0.070312-0.0058594-0.14355-0.010742-0.21094-0.010742-0.087891,0-0.16895,0-0.24707,0.010742-0.1123,0.014648-0.20996,0.033203-0.30566,0.067383-0.10938,0.041016-0.20703,0.10059-0.28711,0.18848l-0.068359-0.22266-0.24805,0.097656-0.21875,0.09082-0.17969,0.070312s-0.018555-0.21094-0.4043-0.10449c-0.38477,0.10449-0.30762,0.3916-0.30762,0.3916-0.18848-0.043945-0.28223-0.15527-0.3291-0.28125-0.086914-0.24805,0.46387-0.14551,0.19531-0.50684-0.43457,0.26367-0.1875-0.13574-0.74609-0.18652-0.10742,0-0.10742,0.2959-0.20898,0.29102-0.13184-0.0058594-0.25879-0.0058594-0.38379-0.012695-0.14453-0.0087891-0.1084-0.64941-0.33691-0.22754-0.2334-0.021484-0.49316-0.060547-0.70312-0.094727-0.13086-0.022461-0.29883,0.1582-0.42773,0.12695-0.1709-0.047852-0.33203-0.097656-0.49219-0.16211-0.022461,0.066406-0.33691,0.069336-0.38379,0.12988-0.044922,0.053711,0.17676,0.15918,0.11621,0.20801-0.074219,0.052734-0.16113,0.10059-0.24512,0.1416-0.058594,0.022461-0.12109,0.049805-0.18652,0.073242-0.125,0.041016-0.2627,0.078125-0.40918,0.10645-0.11523,0.019531-0.23535,0.040039-0.36035,0.056641-0.13965,0.019531-0.27637,0.03125-0.41602,0.044922-0.26758,0.021484-0.53125,0.032227-0.78125,0.043945-0.25195-0.036133-0.50391-0.066406-0.75879-0.09375-4.8662-0.52344-10.105,0.32129-14.409,1.7109-0.69727,0.11035-1.5293,1.0547-2.3232,1.5186,1.0771,0.0039063,1.1133-0.36523,2.1436-0.52344,0.80566,0.083984,1.1836,0.75977,1.8887,1.1201l-0.4035-0.539c0.98438-0.60742,0.75195,0.22949,1.5137-0.45312l0.060547,0.95117c0.10547-0.22168,0.19336-0.21973,0.61816-0.30762,0.4209,0.8916,0.52148,0.21191,0.70215,0.34277l0.2147-0.658c0.14648,0.1123,0.78711,0.51855,0.85254,0.66406l0.39941-0.26465c0.27148,0.3584,3.0098-0.72754,2.2793,0.33691,0.17969-0.14551,0.33789-0.47266,0.75781-0.41113l0.082031,0.60547c0.58496-0.16895,1.248-0.30078,1.4219,0.033203-0.31641,0.14844-0.42383,0.41895-0.52246,0.68457,1.9326-0.25879,0.010742-1.4385,2.2637-1.4922l-0.033203,0.39355,0.57715-0.40234,0.58398,0.50586c0.86133-1.3262,3.1494,0.25488,4.5498-0.33789,0.54785-0.079102,1.1748,0.78809,2.1943,0.79102l-0.0019531-0.60547c0.67383,0.60254,3.1035,1.2881,3.9912,2.4912h0.29199c-0.0097656-0.037109-0.0097656-0.083008-0.0048828-0.13184,0.71094-0.17578,1.0908-0.071289,1.3545,0.13184h0.029297c0.0019531,0.025391,0.0087891,0.030273,0.010742,0.03418,0.29395,0.25,0.45312,0.63184,0.81738,0.88867,0.94629-0.12695-0.64062-0.35059-0.081055-0.70801,1.2842,0.70312,1.2588-0.53809,2.875,0.20898,0.097656,0.37207,2.7412,0.83887,4.5352,1.1914,1.915,0.93457,4.8662,1.9785,7.1533,3.207l0.10547-0.19824c0.85645,0.83496,2.1094,0.64746,3.252,1.2246l-0.50684-0.46973c0.88672-0.14551,1.2744,0.20117,2.0654,0.25098l0.54102,0.40137c0.88086,0.0078125,0.21777-0.10156,0.89355-0.27051,0.64844,0.5918,2.3496,0.5957,2.6953,0.70801,0.18457,0.34082,0.28125,0.25684,0.11426,0.40234,1.0293,0.015625,0.41992-0.53418,1.6426-0.2793l-0.017578,0.1709c3.0703-0.2627,10.279,0.33887,10.197-0.044922,0.50781-0.033203-0.55957-0.34766-0.63477-0.47852,0.86523-0.013672,2.1797,0.14453,3.0977,0.10156,0.433-0.023,0.859-0.049,1.292-0.083,0.54492-0.046875,1.1338-0.92871,1.6191-0.19336,0.43164-0.064453,0.85938-0.14551,1.2773-0.24512,0.39062-0.091797,0.38672,0.099609,0.75195-0.022461,0.087891-0.03125,0.27246-0.13867,0.45703-0.24219,0.092773-0.05957,0.18945-0.11621,0.27441-0.16016,0.070312-0.039062,0.12988-0.071289,0.16504-0.086914,0.078125-0.027344,0.25-0.015625,0.32422-0.046875,0.058594-0.025391,0.022461-0.095703,0.078125-0.12207,0.085938-0.041992,0.29395,0.05957,0.37402,0.016602,0.042969-0.016602-0.038086-0.18164,0-0.20215,0.063-0.033,0.049-0.218,0.108-0.254" fill="#22BCB9"/>
<path d="M62.881,39.223c0.25879,0.12012,0.13086-0.26562-0.053711-0.33008,0.38379,0.064453-0.021484-0.33984-0.22363-0.22363,0-0.11621-0.46289-0.063477-0.53809,0-0.22754-0.21777-0.073242,0.084961,0.23047,0.14746-1.63,0.446,0.649,0.274,0.586,0.407" fill="#22BCB9"/>
<path d="M48.08,34.025c-0.046875-0.011719-0.22754,0.050781-0.2832,0.040039-0.17188-0.045898-0.057617-0.13672-0.33105-0.19141,0.09668,0.054688-0.13086,0.14551-0.037109,0.19336,0.050781,0.024414-0.082031,0.12988-0.038086,0.15039,0.038086,0.023438,0.25488-0.03418,0.28613-0.012695,0.021484,0.016602-0.3418,0.12695-0.32422,0.14551,0.050781,0.047852,0.44922,0,0.4082,0.047852,0.552-0.066,0.768-0.239,0.319-0.373" fill="#22BCB9"/>
<path d="M44.055,32.681l-0.095703,0.19629,0.072266,0.15039,0.32812-0.16211,0.042969,0.16211,0.27734-0.0039063c0.37207-0.25879,0.72266-0.19336,0.70117-0.47852l-0.21484,0.0009766-0.52734-0.20312-0.17578,0.21875-0.2666,0.0029297h-0.086914l-0.053,0.117z" fill="#22BCB9"/>
<path d="M26.288,28.741c0.16504-0.039062,0.18457-0.09668,0.19922-0.18164,0.0039063-0.056641,0.0625-0.13574,0.050781-0.2002-0.022461-0.13281,0.071289-0.1875-0.082031-0.19238-0.080078,0.13672-0.10547,0.041992-0.17578,0.10156-0.033203,0.035156-0.16113-0.0019531-0.19922,0.014648-0.058594,0.032227-0.027344,0.10449-0.078125,0.10742-0.040039,0-0.080078-0.0029297-0.10742-0.0029297,0.072266,0.10742-0.095703,0.020508,0.027344,0.24414,0.025391,0.051758,0.19141-0.052734,0.22461,0.023438,0.053-0.005,0.108,0.097,0.14,0.086" fill="#22BCB9"/>
<path d="M26.134,28.966c-0.21191,0.049805-0.28223,0.12988-0.28027,0.19238,0.0058594,0.040039,0.037109,0.09082,0.068359,0.13672-0.09375-0.13184,0.080078,0.22656,0.1084,0.098633,0,0.012695,0.10352-0.013672,0.083008,0.0068359,0.078125-0.10938,0.020508-0.0019531,0.10156-0.054688,0.039062-0.030273,0.2373-0.013672,0.27539-0.039062,0.078125-0.027344,0.0097656-0.077148,0.086914-0.084961,0.05957-0.0087891,0.1084-0.0087891,0.14648-0.014648-0.12695-0.066406,0.125-0.030273-0.092773-0.18164-0.053711-0.032227-0.25977,0.070312-0.33203,0.013672-0.066,0.013-0.112-0.084-0.164-0.073" fill="#22BCB9"/>
<path d="M25.475,28.955c0.042969,0.079102,0.097656,0.10449,0.14648,0.09668,0.035156-0.0019531,0.066406-0.017578,0.097656-0.036133,0.066406-0.029297,0-0.0087891,0.070312-0.049805-0.083984-0.023438,0.0019531-0.039062-0.039062-0.061523-0.027344-0.017578-0.023438-0.092773-0.037109-0.10645-0.025391-0.030273-0.056641,0-0.070312-0.030273-0.0019531-0.020508-0.0078125-0.037109-0.013672-0.055664-0.043945,0.054688-0.019531-0.043945-0.12695,0.051758-0.027344,0.019531,0.054688,0.094727,0.023438,0.125,0.009,0.024-0.059,0.049-0.05,0.066" fill="#22BCB9"/>
<path d="M27.042,28.856c0.021484,0.030273,0.036133,0.056641,0.063477,0.070312,0.0078125,0.0068359,0.014648,0.010742,0.024414,0.015625,0.014648,0.0029297,0.018555-0.015625,0.03125-0.0087891,0,0,0.018555,0.019531,0.02832,0.016602h0.019531c0.011719-0.0048828,0.0097656-0.024414,0.021484-0.02832,0.011719-0.0009766,0.027344,0.015625,0.035156,0.011719-0.0078125,0.0039063,0,0,0.023438-0.0078125,0.024414-0.019531,0.064453-0.045898,0.068359-0.061523-0.043945,0.0068359,0.025391-0.044922-0.040039-0.064453-0.020508-0.015625-0.020508-0.09082-0.036133-0.10352-0.026367-0.02832-0.060547,0-0.070312-0.02832-0.0019531-0.023438-0.0078125-0.043945-0.012695-0.05957-0.041992,0.053711-0.022461-0.043945-0.12793,0.048828-0.023438,0.023438,0.054688,0.094727,0.018555,0.12695,0.015,0.027-0.05,0.051-0.045,0.072" fill="#22BCB9"/>
<path d="M49.637,35.152c0.67188,0.091797,0.22461-0.31836,0.38281-0.4707,0.10156-0.097656,1.0488,0.13867,1.0801,0.0039063,0.074219-0.27637,0.51562-0.28027-0.071289-0.45215-0.48633,0.17578-0.48145-0.030273-0.82129,0.011719-0.18164,0.023438-0.65039-0.18555-0.79688-0.18652-0.28809-0.0078125-0.24805,0.16406-0.4541,0.10938-0.16504-0.039062-0.30566-0.084961-0.41113-0.11719,0.13965,0.28125-0.40332-0.056641-0.22656,0.49512,0.037109,0.12695,0.83984,0.10254,0.88477,0.29297,0.189,0.041,0.291,0.296,0.433,0.314" fill="#22BCB9"/>
<path d="M32.926,30.549c0.30664,0.070312,0.38965,0.0087891,0.45898-0.10352,0.046875-0.074219,0.19922-0.1377,0.20898-0.2373,0.037109-0.20703,0.24023-0.20703-0.02832-0.3291-0.22461,0.12207-0.22461-0.020508-0.37695,0.0097656-0.087891,0.012695-0.30176-0.13379-0.36914-0.13965-0.13379,0-0.11523,0.12109-0.20605,0.083984-0.074219-0.029297-0.13965-0.063477-0.19043-0.083984,0.06543,0.2002-0.18652-0.042969-0.10254,0.35449,0.019531,0.095703,0.37891,0.078125,0.41016,0.2168,0.083,0.028,0.125,0.214,0.195,0.229" fill="#22BCB9"/>
<path d="M48.308,34.673c-0.25684-0.012695-0.3877,0.045898-0.4248,0.12207-0.027344,0.051758-0.017578,0.1123-0.013672,0.1748-0.015625-0.18066-0.061523,0.2793,0.056641,0.14844-0.015625,0.015625,0.11719,0.018555,0.075195,0.037109,0.15039-0.098633,0.020508,0.0048828,0.14551-0.026367,0.064453-0.021484,0.25977,0.057617,0.31445,0.053711,0.10547-0.014648,0.0625-0.089844,0.15234-0.075195,0.0625,0.013672,0.11523,0.029297,0.16016,0.039062-0.083984-0.125,0.15625,0.0087891,0.017578-0.23633-0.033203-0.056641-0.31641-0.010742-0.36523-0.094727-0.07-0.013-0.058-0.135-0.118-0.143" fill="#22BCB9"/>
<path d="M79.299,38.914c0.24805-0.27148,0.64062-0.34082,1.251-0.40918,0.39355-0.042969,0.93652-0.17871,1.4004-0.2002,0.93262-0.033203,1.2959-0.21582,1.3584,0.021484-0.93555,0.20312-0.28418,0.19629-0.69336,0.33398-0.2207,0.078125,0.06543,0.26465-0.046875,0.32227-0.22168,0.11816-0.71777,0.10449-0.72363,0.19043-0.0048828,0.066406,0.026367,0.11719,0.03125,0.16504-0.757-0.051-0.136,0.163-1.731,0.107-0.37402-0.020508,0.35254-0.34375-0.20605-0.35938,0.028-0.076-0.692-0.109-0.639-0.171" fill="#22BCB9"/>
<path d="M62.497,39.875c-0.16211,0.049805-0.82422,0.0048828-0.98047,0.052734-0.072266,0.017578,0.375,0.12891,0.29102,0.15039-0.0625,0.018555-0.125,0.036133-0.18945,0.052734-0.095703,0.026367-0.20703,0.055664-0.33496,0.087891-0.21191,0.051758-0.067383,0.28711-0.78809,0.18848,1.0098-0.46582,0.66309-0.76367-1.7461-0.47363,0.69727-0.5752-0.65234-0.10449-0.65234-0.29004-0.78809-0.19043-0.4873-0.30078,0.18164-0.31934,0.36133-0.0097656,0.013672-0.19434,0.20801-0.21777,0.38184-0.041016,0.28223,0.13281,0.31934,0.077148,0.037109-0.050781,0.011719-0.09375,0.019531-0.12793,1.1172,0.18848,0.28125-0.088867,2.6367,0.27441,0.546,0.086-0.676,0.171,0.156,0.296-0.076,0.05,0.986,0.215,0.877,0.25" fill="#22BCB9"/>
<path d="M79.495,39.609c-0.25781-0.015625-0.38672,0.057617-0.42188,0.1543-0.025391,0.06543-0.025391,0.14551-0.015625,0.22168-0.018555-0.23047-0.061523,0.35254,0.050781,0.18652-0.011719,0.020508,0.12402,0.024414,0.078125,0.050781,0.15527-0.12402,0.02832,0.0058594,0.14453-0.037109,0.064453-0.024414,0.26074,0.069336,0.31445,0.066406,0.10938-0.011719,0.06543-0.10742,0.14844-0.09082,0.068359,0.017578,0.12207,0.035156,0.16406,0.045898-0.084961-0.15332,0.16113,0.015625,0.020508-0.2959-0.03125-0.073242-0.31934-0.014648-0.36133-0.125-0.075-0.01-0.07-0.172-0.122-0.177" fill="#22BCB9"/>
<path d="M83.448,38.163c0.029297,0.045898,0.079102,0.077148,0.1416,0.10449,0.022461,0.010742,0.046875,0.019531,0.069336,0.029297,0.037109,0.0078125,0.091797-0.0039063,0.13086,0.0048828,0.033203,0.0029297,0.043945,0.027344,0.080078,0.032227,0.029297,0.0048828,0.053711,0.0048828,0.073242,0.0078125,0.036133,0.0048828,0.0625-0.015625,0.09375-0.012695,0.038086,0,0.084961,0.02832,0.13672,0.02832h0.083984c0.1084,0,0.28125-0.0009766,0.3125-0.018555-0.16895-0.012695,0.1416-0.026367-0.06543-0.079102-0.0625-0.024414,0.02832-0.09668-0.0029297-0.11621-0.0625-0.038086-0.21289-0.029297-0.20996-0.05957,0.0019531-0.024414,0.015625-0.046875,0.015625-0.058594-0.23242,0.021484-0.040039-0.061523-0.52539-0.024414-0.11328,0.0087891,0.098633,0.11621-0.079102,0.12891,0.013,0.03-0.274,0.016-0.256,0.035" fill="#22BCB9"/>
<path d="M47.176,35.216c-0.09375,0.069336-0.18359,0.0625-0.24609,0.018555-0.040039-0.025391-0.078125-0.066406-0.11426-0.10547-0.075195-0.086914-0.019531-0.10352-0.13574-0.11914,0.12695,0.03125,0.076172-0.036133,0.14258-0.040039,0.044922-0.0048828,0.074219-0.09082,0.10156-0.10059,0.050781-0.015625,0.082031,0.041016,0.10352,0.0097656,0.018555-0.019531,0.03125-0.044922,0.042969-0.058594,0.041016,0.09668,0.057617-0.040039,0.1582,0.14258,0.020508,0.045898-0.12305,0.079102-0.083984,0.14062-0.032,0.024,0.052,0.1,0.03,0.111" fill="#22BCB9"/>
<path d="M24.182,28.344c-0.11035-0.085938-0.19336-0.11133-0.26074-0.095703-0.049805,0.014648-0.09375,0.043945-0.13574,0.085938-0.029297,0.026367-0.053711,0.058594-0.083008,0.089844-0.0625,0.071289,0.09375,0.10938,0.018555,0.15723,0.15039,0.026367,0.02832,0.18652,0.13477,0.16016,0.10547-0.019531,0.21289-0.19043,0.29492-0.22949,0.045898-0.025391-0.035156-0.025391,0.0078125-0.050781-0.037-0.037,0.054-0.091,0.023-0.117" fill="#22BCB9"/>
<path d="M97.385,24.404c0.86523,0.19629,0.51953,0.88965,0.94922,1.4717,0.11133,0.14941,0.32129,0.27148,0.3584,0.65918l-0.66211,0.1416c0.72949-0.052734-0.0087891,0.44336,0.44824,0.60449-0.16797,0.20801-0.33789,0.30078-0.89648,0.44336,0.14258,0,0.4834-0.046875,0.4707,0.18066-0.06543,0.10645,0.11133,0.15527,0.12695,0.31152-0.192,0.03-0.286-0.092-0.489-0.092,0.015625,0.10156,0.055664,0.19043-0.10547,0.26172,0.15527,0.18555,0.28027-0.0087891,0.48535,0.11621-0.1543,0.29102-0.66797-0.0048828-1.082,0.073242-0.25391-0.19824-0.35352-0.40137-0.50879-0.48047l0.16309,0.30859c-0.22852-0.013672-0.39844,0.17676-0.6123,0.025391-0.21191,0.24316-0.014648,0.52051,0.079102,0.8125,0.078125-0.0029297,0.14551-0.029297,0.27344,0.023438,0.075195,0.17285-0.17969,0.061523-0.33789,0.024414,0.11035,0.14258,0.45703,0.30078,0.69141,0.48926-0.41406,0.10645-0.80078-0.15527-0.77539,0.18652l0.34082,0.18359c-0.34863-0.029297,0.14941,0.30566-0.14648,0.33105-0.079102-0.042969-0.51855-0.31152-0.47168-0.11328l-0.29688-0.33398c-0.25977-0.021484-0.063477,0.48828-0.33301,0.22559,0.25195,0.41016-0.053711,0.36133-0.041992,0.70508l-0.22949-0.24805c0.21387,0.38184-0.39551,0.33398-0.15332,0.77734l-0.048828-0.13574c0.040039,0.17676,0.058594,0.34375,0.083008,0.5166-0.125,0.050781-0.40137-0.38086-0.32129-0.26074-0.14941,0.23633-0.32031,0.37207-0.55273,0.32422-0.28613,0.12207,0.023438,0.6582-0.15918,0.83398-0.59473,0.1709-0.9873,0.52832-1.5254,0.91113-0.047852,0.029297-0.26074,0.027344-0.30762,0.063477-0.060547,0.042969-0.054688,0.35742-0.11719,0.40625-0.11328,0.085938-0.29395-0.086914-0.40332,0-0.24609,0.19824-0.48926,0.40039-0.72754,0.60254-0.1543,0.0625-0.16992,0.20801-0.32812,0.47852,0.29102,0.03418,0.30762,0.36816,0.44141,0.0068359,0.23047,0.063477-0.20898,0.34277-0.91016,0.80664l0.80469-0.12793c-0.27637-0.28223,0.71973,0.46387,0.79492-0.045898,0.22852-0.35059-0.083984-0.36328-0.083984-0.36328-0.10742-0.34473,0.25293,0.032227,0.25293,0.032227,0.14648,0.20312,0.91113-0.021484,0.91113-0.021484,0.017578-0.10742,0.96289-0.17871,1.5195-0.4834l0.10156,0.22852,0.023438-0.30762,0.29883,0.20312c-0.20703-0.85742,0.83496-0.36914,0.9248-0.97949,0.082031-0.14648,0.54199,0.16113,0.75488-0.064453l-0.24805-0.29688c0.42969,0.18066,1.1396-0.20996,1.9658,0.14551-0.20215-0.26172,0.074219,0.02832-0.1416-0.19238,0.05957-0.64648,0.52441-0.2334,0.88379-0.31152,0.058594-0.37598-0.27246,0.097656-0.38184-0.22656,0.5332-0.19629-0.11133-0.58887,0.42969-0.91406,0.21289,0.075195,0.11914-0.20312,0.19727-0.070312-0.067383-0.56543,0.47363-0.6748,0.65625-1.3027,0.63184-0.61523,1.1123-2.3555,1.29-2.9326-0.086914,0.2998-0.41699,0.13574-0.41699,0.13574,0.33008-0.37598,0.23242-1,0.29492-1.4756l-0.15918,0.26074c-0.2998-0.24414-0.17773-0.43945-0.35645-0.67676l0.35645-0.26172c-0.21875-0.25586-0.37207-0.027344-0.63965-0.16113,0.16602-0.3418-0.10254-0.55078-0.14355-0.66113,0.1377-0.15625,0.12012-0.23242,0.24316-0.2373-0.029297-0.53418-0.60742-0.068359-0.80273-0.42285l0.09375-0.05957c-0.69727-0.93652-1.5703-1.5723-2.6289-1.9453,0.039062,0.058594-0.029297,0.11426-0.060547,0.19336-0.55078-0.3584-1.2715-0.70117-1.96-0.67969-0.13965,0.0009766-0.26855,0.022461-0.39648,0.054688-0.25,0.06543-0.48047,0.18555-0.69434,0.38281,0.21875-0.030273,0.2832,0.13672,0.43164,0.1377,0.099609,0,0.30664-0.1709,0.38086-0.16309,0.83105,0.12109,0.32129,0.80566,0.94141,0.50879,0.0068359,0.33789,0.4707,0.15527,0.29297,0.53125,0.4082,0.54297,1.1055,0.21387,1.5869,0.77051,0.0019531,0.12793,0.16895,0.15723,0.03418,0.2959l0.287-0.141z" fill="#22BCB9"/>
<path d="M95.709,25.062c0.023438-0.16113-0.57031,0.17773-0.68164,0.078125-0.027344-0.020508-0.046875-0.049805-0.058594-0.087891,0,0,0.15625-0.22461-0.0058594-0.10938-0.16504,0.11914-0.14355,0.25879-0.14355,0.25879s0.024414-0.085938,0.16797,0c0.22949,0.1377-0.058594-0.0078125,0.13965,0.16309,0.19727,0.16602-0.16406,0.045898-0.16406,0.045898s-0.03418,0.20898,0.09082,0.2998c0.12793,0.094727,0.14355-0.32324,0.14355-0.32324,0.05-0.09,0.505-0.279,0.512-0.326" fill="#22BCB9"/>
<path d="M95.816,25.1l-0.23438,0.26562,0.375,0.010742c0.153-0.256-0.089-0.136-0.141-0.277" fill="#22BCB9"/>
<line y2="30.612" x2="95.878" y1="30.646" x1="95.884" fill="#22BCB9"/>
<path d="M76.059,40.83c0.042969,0.023438,0.10156,0.026367,0.1709,0.020508,0.024414-0.0019531,0.049805-0.0068359,0.078125-0.016602,0.037109-0.0039063,0.075195-0.041992,0.10938-0.053711,0.036133-0.012695,0.057617,0,0.088867-0.012695,0.029297-0.0097656,0.054688-0.020508,0.072266-0.03125,0.033203-0.011719,0.044922-0.042969,0.075195-0.058594,0.029297-0.014648,0.078125-0.011719,0.13184-0.036133-0.046875,0.021484,0,0,0.071289-0.042969,0.09668-0.057617,0.24023-0.14355,0.25977-0.1709-0.15625,0.071289,0.11035-0.092773-0.09082-0.036133-0.072266,0.0058594-0.022461-0.099609-0.06543-0.099609-0.069336-0.0048828-0.19727,0.077148-0.21387,0.050781-0.0078125-0.020508-0.0078125-0.041016-0.014648-0.056641-0.18945,0.13184-0.05957-0.03418-0.46582,0.23535-0.09375,0.061523,0.1416,0.057617,0,0.14648,0.021,0.027-0.232,0.152-0.206,0.164" fill="#22BCB9"/>
<path d="M35.196,30.071c0.03125,0.13867,0.12109,0.2168,0.2168,0.24512,0.052734,0.022461,0.12305,0.025391,0.19238,0.029297,0.1377,0.0087891,0.0048828-0.020508,0.1582-0.020508-0.13672-0.09375,0.022461-0.044922-0.03418-0.11719-0.035156-0.036133,0.0078125-0.13672-0.0039063-0.16992-0.03125-0.060547-0.10742-0.047852-0.10449-0.091797,0-0.036133,0.0058594-0.067383,0.0058594-0.09375-0.11523,0.039062-0.021484-0.083008-0.26074-0.03125-0.054688,0.011719,0.046875,0.17676-0.041992,0.19043,0.003,0.046-0.135,0.028-0.128,0.061" fill="#22BCB9"/>
<path d="M79.263,38.789c-0.045898-0.020508-0.22949,0.071289-0.28027,0.047852-0.17188-0.053711-0.056641-0.17285-0.33398-0.24023,0.099609,0.063477-0.12891,0.18652-0.032227,0.24902,0.050781,0.026367-0.084961,0.1582-0.040039,0.18457,0.03418,0.029297,0.25586-0.039062,0.28711-0.015625,0.016602,0.015625-0.34375,0.16406-0.32812,0.17969,0.053711,0.067383,0.44922,0.0048828,0.40723,0.067383,0.555-0.083,0.77-0.305,0.32-0.473" fill="#22BCB9"/>
<path d="M39.846,31.296c0.015625,0.056641,0.34961,0.18164,0.42188,0.25977,0.044922,0.046875,0.091797,0.33789,0.14941,0.39648,0.084961,0.079102,0.19434-0.078125,0.3125,0.010742,0.092773,0.06543,0.32422-0.069336,0.43359,0-0.10254-0.14551-0.35254-0.088867-0.4375-0.21777-0.020508-0.02832,0.32812-0.094727,0.3125-0.12695-0.012695-0.020508-0.35645-0.1377-0.3623-0.16016-0.040039-0.095703-0.071289-0.046875-0.011719-0.1123-1.162-0.541-0.903-0.253-0.818-0.05" fill="#22BCB9"/>
<path d="M74.111,18.118c-0.84863,0.085938-1.5166-0.82031-1.2354-1.2939,0.50488-0.82031,2.1816-1.918,3.4219-1.918l1.6133-0.27051c0.33789,0.34375,1.418-0.21484,0.62598,0.40332-0.767,0.595-3.472,2.952-4.426,3.08" fill="#06357A"/>
<path d="M53.299,30.28c0.16797,0.21875,0.44531,0.34473,0.22461,0.51855-0.73438,0.60156-1.5762,1.3838-2.5352,1.0752-1.0684-0.34082-0.89844-1.6797-0.50391-2.457,0.3916-0.81738,0.28125-1.5947,0.95508-2.2832,0.16992-0.17578,0-0.64648,0.2207-0.9082,0.28711-0.2168,0.3418-0.34375,0.45508-0.73145,0.33984-0.99512,0.67383-1.7266,0.10938-2.6738-0.10938-0.2207-0.27734-0.34766-0.50391-0.38867-0.56445-0.13086-0.56445,0.21484-0.78613,0.47461-0.56348,0.56055-0.78809,1.2061-1.3486,1.8086-1.4062,1.3857-2.7637,2.9365-4.8418,3.9268-0.16602,0.088867-0.16602-0.72266-0.057617-0.81152,2.4189-1.6826,3.4648-3.2109,4.5342-5.1973,0.33789-0.55957,0.41602-0.94629,0.30469-1.4209-0.05957-0.38867-0.61914-0.60645-0.50391-0.99414,0.050781-0.43066,1.0137-0.6748,1.6328-0.93652,0.56152-0.25781,1.1797-0.94531,1.9102-0.81934,0.95898,0.21387-0.67383,1.4219,0.90234,1.9414,1.6328,0.55859,2.4717,1.8975,1.7441,3.2324l-0.11133,0.086914,0.11133,0.044922c-0.674,2.156-3.262,4.357-1.911,6.512" fill="#06357A"/>
<path d="M61.666,29.485c-0.50781,0.43164-0.4541,1.3799-1.2959,1.165-1.8555-0.52148-0.33594-2.1172-0.44727-3.541-0.056641-1.291-0.17383-2.3711,1.5137-2.1553,2.817,0.39,1.746,3.107,0.229,4.531m3.771-6.04c0-0.82031-1.0752-2.458-2.0303-1.9844-3.0371,1.5078-3.373,1.3799-5.2305,3.7949-0.67578,0.86328-1.126,0-1.4102,2.2871-0.22559,1.8506-1.0645,3.5801,0.73438,5.0908,0.39551,0.34277,1.0693,0.47266,1.8555,0.42871,0.84375-0.085938,1.7461-0.60352,2.1973-1.0752,0.61621-0.64941,1.2363-0.90625,1.6299-1.8145,1.299-2.757,2.304-3.794,2.254-6.729" fill="#06357A"/>
<path d="M75.434,29.934c-0.15039,0.30859-0.46289,0.70312-0.70898,0.87109-1.3516,0.90527-3.2051,1.8291-4.7812,1.1826-2.1641-0.86426,1.3789-5.084-4.8379-0.90625-1.7422,1.165,2.0264-2.5479,3.0957-3.9717,0.22559-0.29785,0.67578-0.47363,0.8418-0.9043,0.39258-0.86133,0.73438-1.208,1.2383-2.0254,0.56738-0.91016,2.084-1.6367,3.373-1.8574l0.28418,0.38867c-0.50879,1.6406-1.6338,3.2344-1.6338,4.96v1.7676c-0.054688,0.64941,0.2832,1.0381,0.8457,0.99609,0.95703-0.044922,1.1816-0.94922,2.1973-1.207,0.227-0.047,0.214,0.44,0.086,0.704" fill="#06357A"/>
<path d="M96.555,26.832c-0.90039,1.166-1.834,2.3643-3.458,3.0537-1.749,0.7334-3.8047,1.1318-5.4932,0.56934-0.33203-0.12988-0.44922-0.12988-0.72266-0.16992-1.4727-0.34668-2.3711-1.0361-3.6035-1.5098l-1.2363-0.74609c-0.56738,0.3877-1.0156,0.90723-1.4102,1.3799-0.95508,1.0762-1.5732,2.1973-2.5312,3.2363-1.9111,2.0273-3.6562,3.998-4.7256,6.5-0.16699,0.43457-0.56152,0.7334-1.3486,0.95117-0.56055,0.12695-1.0703,0.040039-1.4082,0.12695-0.39551,0.041016-0.44727-0.38965-0.95703-0.34473l-0.054688-0.29883-0.16992,0.082031c-0.5625-0.64746-0.16699-1.3799,0.39062-2.0273,0.8457-0.86133,1.918-1.4648,2.9238-2.3281,0.95898-0.82031,1.752-1.5947,2.5928-2.458,1.458-1.4668,2.8691-2.8477,3.7148-4.6162l0.27832-0.12793c0.56152-1.1211,2.1094-1.9004,1.2666-3.2773-0.50879-0.82324-0.39355-1.7715-0.33887-2.6768l-0.33789-0.7334-0.017578-3.8896c0.14258-0.9209,0.83789-1.3301,1.0068-1.8447,0.11035-0.2207,0-0.26074,0.2207-0.34668,0.39355-0.13281,0.62793-0.8623,1.0146-0.5166,0.58789,0.56934,0.10059,1.4482-0.17188,2.2188-0.046875,0.11719,0.21582,0.16504,0.18945,0.27832-0.025391,0.10449,0.0058594,0.25293,0,0.35156-0.017578,0.29004-0.25781,0.5332,0.041992,0.72949,1.0166,0.68262,0.78613,0.99219,0.67285,1.5527-0.33789,1.3809-0.28125,2.46,0.16699,3.4951l0.053711,0.12695c0.73438-0.21191,0.96094-0.73242,1.4658-1.207,0.78809-0.69043,1.3486-1.3359,2.0781-2.0244,2.0889-2.0732,4.624-5.7051,7.623-5.3613,1.6807,0.19238,0.19824,2.7295-0.69922,3.5908-1.3506,1.2529-3.0117,2.4277-4.8643,3.0293-0.61914,0.21777-1.2402,0.17578-1.6328,0.47363-0.73145,0.69336-1.4082,1.3809-2.0273,2.1562-0.50391,0.60938-1.7139,1.2422-0.59277,1.9346,0.4541,0.30273,1.1299,0.81934,1.4111,1.2939,0.50391,0.90234,1.5752,1.0752,2.418,1.5938,0.22656,0.12988,0.45312-0.085938,0.72461,0,0.33789,0.088867,0.62109-0.085938,0.85156,0,0.2832,0.045898,0.73145,0.088867,1.1211,0.045898,1.9141-0.2207,3.8828-1.082,4.7285-2.4619,0.2207-0.29883,0.45215-0.77441,0.73047-1.1221,0.28418-0.34277-0.17188-1.0801,0.33789-0.95117,1.177,0.264,0.168,1.712-0.225,2.269" fill="#06357A"/>
<path d="M87.678,32.444c0.086914-0.19531,0.20312-0.36426,0.35156-0.50781,0.14648-0.14355,0.31836-0.25586,0.51562-0.33691,0.19531-0.082031,0.4043-0.12305,0.625-0.12305s0.42871,0.041016,0.62305,0.12305c0.19531,0.081055,0.36523,0.19336,0.51172,0.33691s0.2627,0.3125,0.34863,0.50781c0.085938,0.19434,0.12891,0.40527,0.12891,0.63184,0,0.23145-0.042969,0.44629-0.12891,0.64258-0.085938,0.19531-0.20215,0.36621-0.34863,0.51172-0.14648,0.14453-0.31641,0.25684-0.51172,0.33691-0.195,0.079-0.403,0.12-0.624,0.12s-0.42969-0.040039-0.625-0.12012c-0.19727-0.080078-0.36914-0.19238-0.51562-0.33691-0.14844-0.14551-0.26465-0.31641-0.35156-0.51172-0.085938-0.19629-0.12891-0.41113-0.12891-0.64258,0.001-0.226,0.044-0.437,0.13-0.632m0.266,1.18c0.066406,0.16797,0.16016,0.31348,0.2793,0.43652s0.25879,0.21973,0.4209,0.29004c0.16113,0.070312,0.33691,0.10449,0.52637,0.10449,0.18652,0,0.35938-0.03418,0.52051-0.10449,0.16016-0.070312,0.2998-0.16699,0.41895-0.29004s0.21191-0.26855,0.2793-0.43652c0.066406-0.16895,0.10156-0.35059,0.10156-0.54785,0-0.19238-0.035156-0.37109-0.10156-0.53809-0.067383-0.16602-0.16016-0.30957-0.2793-0.43164s-0.25879-0.21777-0.41895-0.28809c-0.16113-0.071289-0.33398-0.10547-0.52051-0.10547-0.18945,0-0.36523,0.03418-0.52637,0.10547-0.16211,0.070312-0.30176,0.16602-0.4209,0.28809s-0.21289,0.26562-0.2793,0.43164c-0.068359,0.16699-0.10156,0.3457-0.10156,0.53809,0,0.197,0.033,0.379,0.102,0.548m1.326-1.481c0.22266,0,0.38867,0.044922,0.49609,0.13379s0.161,0.223,0.161,0.404c0,0.16895-0.047852,0.29297-0.1416,0.37109-0.094727,0.079102-0.21289,0.12598-0.35254,0.13965l0.53711,0.83008h-0.31348l-0.51172-0.80762h-0.30957v0.80762h-0.29054v-1.8789h0.72656zm-0.129,0.834c0.064453,0,0.12695-0.0019531,0.18652-0.0058594,0.058594-0.0048828,0.11035-0.016602,0.15723-0.037109,0.044922-0.020508,0.082031-0.050781,0.10938-0.091797,0.027344-0.041992,0.041016-0.099609,0.041016-0.1748,0-0.0625-0.013672-0.1123-0.037109-0.15039-0.023438-0.037109-0.055664-0.06543-0.09375-0.085938-0.039062-0.019531-0.083984-0.033203-0.13477-0.041016-0.048828-0.0068359-0.098633-0.010742-0.14746-0.010742h-0.38672v0.59766h0.30611z" fill="#06357A"/>
<path d="M23.56,27.241c-0.98926-0.29297-1.5166-1.5254-1.7119-2.5205-0.070312-0.29883-0.53223,0-0.79688,0.1709-1.7129,1.4141-2.9668,3.2295-5.2793,3.876-0.72266,0.23145-1.7168,0.1123-1.8477-0.53027-0.13086-0.81934,0.19629-1.8174,0.59961-2.6416,0.46289-0.875,0.85156-1.7002,1.248-2.5771,0.66211-1.3496,1.1895-2.6992,2.1172-3.874,1.1836-1.6406,2.7051-2.9316,4.6816-3.6963,0.85938-0.29199,0.98926,0.58984,0.85938,1.1182-0.33203,1.4082-1.1221,3.3418-2.7031,3.6943-0.93164,0.1748-1.7188,0.23438-2.1172,0.87891-0.52539,0.88184-0.85547,1.8213-1.1865,2.876-0.19922,0.82324-0.7959,2.1777,0,2.2275,1.6475,0.10742,2.8994-2.4072,3.96-3.7539,0.79297-0.99707,1.3232-2.0537,1.9795-3.0479v-0.41309c1.0508-0.76074,1.7803-2.1113,3.167-1.9961,0.86133,0.11914-0.3291,1.1162-0.39551,1.7617-0.067383,1.9326-1.2529,3.6377-0.46191,5.3389,0.33008,0.70605,1.583,0.64355,2.4385,0.4668,0.46582-0.17773,0.8623-0.4668,1.3887-0.4668,0.45801,0,0.3291,0.87793,0,1.1162-1.717,1.172-3.829,2.695-5.941,1.993" fill="#06357A"/>
<path d="M23.825,37.084c-0.09082-0.28711-0.33203-0.7998-0.46777-1.0879-0.15918-0.31348-0.52734-0.74609-0.66309-0.83496-0.35156-0.25098-1.9248-0.12988-2.2344-0.091797-0.16992,0.03418-0.43359,0.02832-0.70117,0.017578-0.089844,0-0.31445-0.095703-0.49609-0.14551-0.29883-0.0625-0.45312-0.13867-0.74316-0.22461-0.40918-0.31152-0.81934-0.60449-1.1729-0.83203-0.22266-0.14258-0.59766-0.29785-0.83594-0.45703-0.095703-0.10938-0.16992-0.23047-0.24609-0.29688-0.0625-0.058594-0.26074-0.12012-0.33008-0.14551-0.099609-0.088867-0.099609-0.2627-0.19531-0.35156-0.03125,0-0.064453,0-0.13281-0.029297-0.46289-0.46973-1.2168-0.99805-2.2109-1.2041-0.035156-0.058594-0.099609-0.14648-0.13574-0.1748-0.20996-0.083008-0.4541-0.16211-0.65234-0.25,0.11621-0.0009766,0.2373-0.0009766,0.37598,0.0029297l-0.41016-0.016602c-0.16406-0.05957-0.33203-0.086914-0.43164-0.14746-0.095703-0.026367-0.26562-0.026367-0.29492-0.057617-0.16309-0.057617-0.26367-0.17773-0.36816-0.17773-0.35449-0.083008-1.085-0.2334-1.2148-0.2627-0.13477,0-0.9248-0.084961-1.3525-0.084961-0.19922-0.76562,0.26562-1.1748,0.33008-2.085,0-0.11719,0.13086-0.26074,0.13086-0.35352,0.03125-0.26074,0.067383-0.64648,0.095703-0.79004,0.068359-0.32129,0.23145-0.70508,0.26758-1.0283,0-0.11816-0.036133-0.17383-0.036133-0.20312,0.2002-0.44336,0.40137-0.88086,0.60059-1.3193-0.1709-0.032227-0.33301-0.032227-0.40039-0.091797,0.20117-0.81934,0.33301-1.7871,0.42578-2.46,0.068359-0.37988,0.16602-0.88379,0.2627-1.2051-0.061523,0,0.071289-0.58496,0.071289-0.58496,0.068359-0.5,0.16602-0.99316,0.2627-1.4932-0.064453,0-0.3584-0.032227-0.2627-0.23535,0.029297-0.088867,0.029297-0.060547,0.029297-0.060547,0,0.086914,0.10156,0.20312,0.16895,0.20312,0.095703-0.084961,0.13379-0.14258,0.16309-0.23145,0.067383-0.11719,0.10352-0.5-0.098633-0.55762,0.20215-0.14648,0.39746-0.58594,0.16602-0.76562l-0.16602-0.02832c0.03125,0.17773,0.16602,0.43848,0.13184,0.52734-0.033203,0.12012-0.0625,0.063477-0.0625,0.063477l-0.23242-0.030273-0.03125,0.14453c0,0.088867,0.16309,0.11719,0.19434,0.14648-0.19434,0.17578-0.19434,0.38281-0.33398,0.52832,0-0.11719,0.071289-0.2041,0.071289-0.23633-0.033203-0.025391-0.095703-0.086914-0.13281-0.14551,0.061523-0.14648,0.037109-0.38184,0.099609-0.4707,0.033203-0.088867,0.10156-0.11719,0.13281-0.25977-0.1709,0.083984-0.099609,0.11133-0.29492,0.1709,0.027344-0.11523,0.0625-0.23047,0-0.29004l0.16211-0.058594,0.0625,0.087891c0-0.087891-0.029297-0.20312-0.10059-0.23535,0,0.057617-0.061523,0.085938-0.061523,0.085938-0.035156-0.053711,0-0.053711,0.037109-0.085938,0.0625-0.05957,0.125-0.05957,0.125-0.05957-0.22461-0.055664-0.19727-0.17578-0.16211-0.2627,0.037109-0.089844,0.061523-0.2627,0.29883-0.32324,0.06543,0.17676,0.52832,0.060547,0.36133,0.41016-0.033203,0.12012-0.19531,0.12012-0.26465,0.14844,0.069336-0.02832,0.26465,0,0.3623,0l0.10059-0.20508c0.03125-0.088867,0.22754-0.61621,0.13379-0.82129-0.086914-0.19043-0.24316-0.31738-0.375-0.43164l0.26172-0.32812c0.044922,0.10547,0.13281,0.22363,0.20703,0.28809l0.23438-0.52539c0.019531-0.052734,0.029297-0.20215,0.037109-0.3584l0.12207-0.14941c0.026367-0.30273,0.06543-0.59961,0.12207-0.89258l0.28125-0.62207c0.03125-0.12012,0.03125-0.2373,0.0625-0.29688-0.046875-0.026367-0.084961-0.058594-0.10742-0.094727,0.0087891-0.029297,0.015625-0.066406,0.027344-0.098633,0.019531-0.0097656,0.041992-0.0097656,0.080078-0.0097656,0,0.086914,0.12988,0.23438,0.23242,0.29102l-0.068359-0.59375-0.15332,0.0039063c0.35449-1.1113,0.84473-2.2002,1.3467-3.3232,0.48438-1.1104,0.9375-2.1143,1.5371-3.2207,0.6377-1.168,1.4209-2.1152,1.9053-3.2217,0.29395-0.80566,0.39746-1.6309-0.35645-2.0352l-0.12793,0.1416-0.15918-0.26074c-0.45898,0.2207-0.66504-0.16406-1.0156,0.018555-0.2832,0.20215-0.5293,0.20215-1.0068,0.52441-0.657,0.48468-1.625,0.90948-1.625,1.3675-0.10645,2.7197-0.98047,5.3232-2.0449,7.8936-0.32422,0.81641-0.51758,1.6152-0.74023,2.4297-0.040039,0.069336-0.080078,0.13574-0.080078,0.19336,0,0.021484,0.0087891,0.038086,0.012695,0.051758-0.03125,0.11133-0.066406,0.22461-0.10059,0.33789-0.0019531,0.013672-0.0097656,0.016602-0.0097656,0.023438v0.0048828c-0.085938,0.29395-0.17969,0.58887-0.2959,0.8877-0.10449,0.30762-0.18262,1.0645-0.29004,1.7998-0.087891,0.23145-0.16895,0.4707-0.20312,0.65039,0,0.058594,0.03418,0.17285,0,0.2334-0.099609,0.02832-0.19922,0.11816-0.19922,0.20508,0,0.12012,0.03418,0.35254,0,0.44141-0.19434,0.55664-0.49219,1.292-0.62207,1.8447-0.069336,0.29395,0,0.61816-0.069336,0.91113,0,0.14453-0.1582,0.35449-0.22363,0.50098-0.10254,0.32129-0.2002,0.79004-0.2627,1.0566-0.23438,0.7002-0.49609,2.2861-0.56445,2.4033-0.03418,0.086914-0.32812,0.17578-0.39844,0.2627-0.03125,0.11719,0.036133,0.05957,0.036133,0.05957,0.19727,0.026367-0.036133,0.29102-0.036133,0.37988,0.19922,0.085938-0.16016,0.67578-0.23145,0.93848,0.071289,0.03125,0.16895,0.058594,0.2002,0.11816-0.12891,0.5293-0.15332,0.99707-0.25195,1.4062-0.19727,0.96875-0.59375,2.1104-1.0225,3.082-0.03418,0.086914-0.067383,0.23438-0.26074,0.2627-0.17188,0.029297-0.43652,0-0.56055,0.029297-0.49707,0.088867-1.8477,0.088867-2.2061,0.20801-1.4872,0.528-2.0165,0.997-2.3466,1.759-0.098633,0.26367-0.2002,0.61621-0.2002,0.82227,0,0.20508-0.03125,0.43848,0.036133,0.58301,0.13086,0.21094,0.2627,0.5,0.33301,0.64355,0.0625,0.18066,0.35938,0.35742,0.39551,0.50195,0.06543,0.17773,0.029297,0.44043,0.13086,0.55762,0.42773,0.49902,0.88672,1.083,1.3203,1.498,0.1622,0.204,1.5743,0.581,1.7041,0.763,0.13281,0.23047,0.13281,0.52344,0.13281,0.72949,0.03418,0.026367,0.098633,0.084961,0.13281,0.14648,0,0.027344-0.03418,0.09082-0.03418,0.11621,0.13281,0.14551,0.26562,0.35156,0.36426,0.46973,0.12793,0.11816,0.39551,0.2334,0.55957,0.32422,0.066406,0.03125,0.2334,0.03125,0.36328,0.056641,0.13281,0.03125,0.26367,0.03125,0.36523,0.03125,0.23047,0,0.65723-0.11523,0.91992-0.23633,0.064453-0.029297,0.16406-0.088867,0.19922-0.088867,0.13086-0.030273,0.26465-0.030273,0.29883-0.030273,0.32617-0.14453,0.69141-0.29102,0.82129-0.40625,0.067383-0.057617,0.16602-0.17871,0.19434-0.26465,0.039062-0.11816,0.039062-0.26367,0.039062-0.38184,0-0.11719-0.19922-0.11719-0.19922-0.14648-0.09668-0.088867-0.16406-0.35449-0.26562-0.41211-0.0937-0.089-0.3613-0.205-0.4238-0.265-0.2002-0.17285-0.46484-0.35059-0.5-0.52734-0.06543-0.41016,0.070312-0.81836,0.10156-1.2324,0-0.087891,0.064453-0.23242,0.095703-0.29199-0.03125-0.05957-0.095703-0.11719-0.12695-0.14355,0.16406-0.14453,0.26367-0.32617,0.29688-0.47363,0.03125-0.25977,0.22852-0.73242,0.32422-0.99707,0.033203-0.2627,0.033203-0.55762,0.10156-0.79102,0.037109-0.20508,0.13086-0.38086,0.16992-0.55566,0.29297-0.11621,0.52148-0.060547,0.75391-0.030273,0.13477,0.030273,0.62891,0.088867,0.75977,0.11816,0.095703,0,0.16406,0.086914,0.26465,0.086914,0.82715,0.14746,1.7793,0.58594,2.6406,1.1152,0.16309,0.089844,0.39551,0.17383,0.45801,0.23438,0.2002,0.17773,0.39941,0.35156,0.49609,0.49609,0.1582,0.19141,1.2051,0.81738,1.834,1.0869,0.835,0.551,2.346,1.332,3.423,1.767l0.075195,0.12207c0.86133,0.5332,1.7695,0.67285,2.4316,0.65137,0.074219,0.023438,0.091797,0.047852,0.11426,0.069336,0.13379,0.0048828,0.25-0.12207,0.3877-0.11719,0.071289,0.021484,0.25,0.11523,0.33594,0.12012,0.17969,0.0068359,0.47559-0.11816,0.75-0.020508,0.49219,0.10449,1.0039,0.1875,1.1494-0.25,0.033-0.085,0.136-0.432,0.093-0.675m-19.313-3.335c-0.17969,0.37012-0.88965,1.2197-1.6699,1.166-0.35547-0.47461-0.5332-1.0547-0.77246-1.4199-0.1748-0.36816-0.2334-1.4199-0.11426-1.5732,0.17676-0.42285,1.7061-0.32324,2.2969-0.37695,0,0,0.056641-0.15332,0.29102-0.10547l0.61523,0.053711c-0.2353,0.736-0.5888,2.101-0.6464,2.255" fill="#06357A"/>
<path d="M44.378,36.903c-0.11621,0.13867-0.35645,0.4873-0.63184,0.7041-0.87305,0.77051-2.4492,2.1045-4.1875,3.0859-0.27832,0.14062-0.5957,0.49219-0.95312,0.66797-1.0264,0.4541-2.5996,1.333-3.5547,1.4404-0.15234,0-0.58984,0.24512-0.94531,0.35059-0.27734,0.070312-0.71191,0.070312-0.9043,0.070312-0.16016,0-1.5576-0.28613-2.1045-0.49512-0.43652-0.13965-1.2041-0.70703-1.6748-1.0576-0.11719-0.1084-0.30469-0.52832-0.42188-0.74219-0.11133-0.20605-0.37891-0.59473-0.45508-0.83984-0.47852-1.1582-0.55371-2.3184-0.43848-3.3701,0.19727-1.7227,0.47168-3.4414,0.91211-5.0234l0.66797-2.4912c0.042969-0.1416,0.3584-0.7373,0.42969-1.0518,0.31934-1.7217,1.4678-3.8301,1.9795-4.9531,0.11914-0.21191,0.19727-0.59863,0.27539-0.84277,0.078125-0.13965,0.31738-0.45508,0.43945-0.66602,0.15332-0.31543,0.19336-0.67285,0.39062-0.98633,0.2793-0.4209,0.58984-0.80566,0.79102-1.1895,0.074219-0.21191,0.23633-0.59863,0.35352-0.88086,0.59766-0.62891,0.91211-1.791,1.584-2.4209,0-0.1084,0.036133-0.35449,0.11719-0.4541,0.71094-0.98438,0.98828-2.0391,1.6172-2.9521,0.11914-0.13867,0.11914-0.55957,0.27734-0.80762,1.1494-1.8232,1.6973-3.0576,2.4902-4.1436,0.23535-0.3125,0.43164-0.94727,0.70898-1.3691,0.19922-0.28027,0.55273-0.62988,0.79004-0.98242,0.988-1.4404,1.875-2.5224,3.494-3.2636,0.19727-0.070312,0.43262-0.31152,0.70703-0.41992,0.161-0.0694,1.029-0.2139,1.223-0.2139,0.5957,0,1.4355,0.39355,1.8711,0.70898,0.15625,0.13867,0.55566,0.28027,0.78906,0.45508,0.079102,0.072266,0.11914,0.28223,0.24023,0.35352,0.54688,0.24414,0.94629,0.77539,1.2227,1.2637,0.039062,0.10547,0.23535,0.31543,0.39453,0.31543,0.1582,0,0.19531-0.072266,0.35352-0.072266,0.39844,0,0.71289,0.38672,0.71289,0.9502-0.041016,0.35156-0.3916,0.87695-0.3916,1.2646,0,0.13965,0.15918,0.24414,0.11523,0.38379-0.038086,0.52539-0.23535,1.4414-0.27441,1.6162-0.042969,0.14258-0.24023,0.56152-0.39648,0.8418-0.042969,0.10645,0.039062,0.35449-0.078125,0.45508-0.2002,0.24707-0.51465,0.5293-0.63379,0.77344-0.23633,0.45898-0.35449,0.98633-0.5127,1.5098-0.080078,0.31738-0.080078,0.59863-0.080078,0.9834-0.039062,0.1416-0.16016,0.35156-0.27344,0.56348-0.31934,0.73633-0.20117,1.7217-1.0664,2.7031-0.12109,0.1416-0.43945,0.24707-0.63477,0.35059-0.63184,0.35449-0.79102,0.59863-1.543,0.59863-0.1582,0-1.1426-0.5293-1.0645-0.84277l1.2266-4.2891c0.039062-0.13574,0.078125-0.13574,0.15625-0.20605,0.27539-0.84277,1.1074-3.0898,1.1465-3.2676,0.042969-0.13867,0.19531-0.83887,0.078125-1.1611-0.035156-0.13672-0.19434-0.30957-0.31445-0.4541-0.080078-0.1748-0.041016-0.41895-0.1582-0.59668,0-0.068359,0.041016-0.20801,0.11719-0.28027-0.75195-0.38574-1.2275-1.2998-1.9365-1.2998-0.94629,0-1.6592,1.4795-1.8525,1.7578-0.084961,0.10449-0.39648,0.31738-0.51367,0.45605-0.75195,1.1211-0.86133,2.0293-1.6934,3.3271-0.11621,0.14355-0.39453,0.28223-0.51562,0.45898-0.11621,0.17383-0.15625,0.48926-0.31641,0.73242-1.1445,1.7236-2.584,4.8301-3.7266,6.4102-0.037109,0.070312-0.31836,0.21094-0.39648,0.35254-0.27539,0.38281-0.31445,0.80371-0.59277,1.1914-0.075195,0.068359-0.31836,0.17773-0.39551,0.31641-0.078125,0.17383-0.041016,0.49316-0.15332,0.66699-0.2002,0.20996-0.55762,0.4541-0.75684,0.66895-0.31445,0.5625-0.43262,1.2627-0.70996,1.6846-0.11426,0.1748-0.375,0.83008-0.53613,1.1406-0.1582,0.28223-0.17188,0.4375-0.41016,0.71875-0.040039,0.03125,0.039062,0.13965,0.039062,0.31738-0.039062,0.38281-0.23828,0.76953-0.43262,1.1934-0.080078,0.14062-0.080078,0.3877-0.16113,0.59863-0.082031,0.17188-0.27539,0.38574-0.43457,0.56152-0.041016,0.20703,0,0.41992-0.078125,0.59473-0.081055,0.14258-0.27441,0.31543-0.31738,0.45801-0.037109,0.13965,0.080078,0.59668,0,0.875-0.23438,0.98633-0.94629,2.7412-0.98828,2.917-0.037109,0.1416,0,0.35156-0.037109,0.5625-0.11719,0.49121-0.39453,1.2266-0.43652,1.6465,0,0.17578,0.041992,0.45703,0.041992,0.70801,0,0.13574-0.15625,0.48926-0.11621,0.66504,0.040039,1.6162-0.97363,2.0303-0.18262,3.3301,0,0,0.038086,0.21094,0.12012,0.31445,0.27441,0.45605,1.1045,1.0557,1.7754,1.1953,0.3125,0.10547,0.83008,0.1748,0.9834,0.1748h0.63477c0.54102,0,1.6211,0.071289,2.4863-0.38281,1.1484-0.55957,2.1348-1.0938,3.3945-2.0078,0.83203-0.5957,1.2988-0.99316,2.0078-1.623,0.47461-0.41992,1.0215-0.45312,1.5332-1.0547,0.11816-0.1416,0.19141-0.41211,0.42773-0.76367,0.083984-0.1084,0.41406-0.067383,0.57031-0.24707,0.043945-0.070312-0.03418-0.4502,0-0.51855,0.046875,0,0.51758-0.21875,0.71289-0.21875,0.31738,0,0.64258,0.42578,0.60352,0.59961-0.16,0.601-1.463,1.688-1.62,1.9" fill="#06357A"/>
<path d="M12.507,12.136c-0.067383,0.025391-0.12988,0.025391-0.23047,0.056641-0.067383-0.17773,0.19434-0.41211-0.10059-0.44141-0.035156,0.060547-0.0625,0.087891-0.13086,0.17578-0.03125,0.087891,0.03125,0.41113,0.095703,0.55859-0.095703,0.17676-0.12695,0.52734-0.095703,0.73535l-0.2998-0.057617c-0.03418-0.17773-0.13477-0.2959-0.16309-0.44336" fill="#06357A"/>
<path d="M11.217,15.626c0.035156,0.056641,0.16699,0.056641,0.13574,0.16992-0.03418,0.091797-0.10059,0.035156-0.10059,0.05957,0-0.025-0.066-0.146-0.035-0.23" fill="#06357A"/>
<path d="M10.857,15.592c0.063477,0.11816,0.19629,0.38379,0.13379,0.5-0.038086,0.087891-0.13379,0.11816-0.13379,0.11816-0.031-0.177-0.031-0.414,0-0.618" fill="#06357A"/>
</svg>
